<svg xmlns="http://www.w3.org/2000/svg" xmlns:xlink="http://www.w3.org/1999/xlink" x="0" y="0" width="661.6000162760416" height="301.59999593098956" style="
        width:661.6000162760416px;
        height:301.59999593098956px;
        background: #FFF;
        fill: none;
">
        
        
        <svg xmlns="http://www.w3.org/2000/svg" class="role-diagram-draw-area"><g class="shapes-region" style="stroke: black; fill: none;"><g class="composite-shape"><path class="real" d=" M324.75,175.32 L336.32,177.76 L336,190 L324.43,187.56 Z" style="stroke-width: 1; stroke: rgb(0, 0, 255); stroke-opacity: 1; fill: rgb(39, 82, 254); fill-opacity: 0.66;"/></g><g class="composite-shape"><path class="real" d=" M313.17,172.88 L324.75,175.32 L324.43,187.56 L312.85,185.12 Z" style="stroke-width: 1; stroke: rgb(0, 0, 255); stroke-opacity: 1; fill: rgb(39, 82, 254); fill-opacity: 0.66;"/></g><g class="composite-shape"><path class="real" d=" M295.28,176.98 C295.28,174.14 297.59,171.83 300.43,171.83 C303.28,171.83 305.59,174.14 305.59,176.98 C305.59,179.83 303.28,182.14 300.43,182.14 C297.59,182.14 295.28,179.83 295.28,176.98 Z" style="stroke-width: 1; stroke: none; stroke-opacity: 1; fill: rgb(255, 0, 167); fill-opacity: 1;"/></g><g class="composite-shape"><path class="real" d=" M205.97,36.88 L409.08,81.8 L408.42,293.19 L205.31,248.27 Z" style="stroke-width: 1; stroke: none; stroke-opacity: 0.5; fill: none; fill-opacity: 1;"/><path class="real" d=" M205.97,36.88 L205.31,248.27 M217.83,39.51 L217.17,250.89 M229.69,42.13 L229.02,253.51 M241.54,44.75 L240.88,256.14 M253.4,47.37 L252.73,258.76 M265.26,49.99 L264.59,261.38 M277.11,52.62 L276.45,264 M288.97,55.24 L288.3,266.62 M300.82,57.86 L300.16,269.25 M312.68,60.48 L312.02,271.87 M324.54,63.1 L323.87,274.49 M336.39,65.73 L335.73,277.11 M348.25,68.35 L347.59,279.73 M360.11,70.97 L359.44,282.36 M371.96,73.59 L371.3,284.98 M383.82,76.21 L383.16,287.6 M395.68,78.84 L395.01,290.22 M407.53,81.46 L406.87,292.84" style="stroke-width: 1; stroke: rgb(0, 0, 0); stroke-opacity: 0.5; fill: none; fill-opacity: 1;"/><path class="real" d=" M205.97,36.88 L409.08,81.8 M205.93,49.31 L409.04,94.23 M205.89,61.74 L409.01,106.66 M205.86,74.17 L408.97,119.08 M205.82,86.59 L408.93,131.51 M205.78,99.02 L408.89,143.94 M205.74,111.45 L408.85,156.37 M205.7,123.88 L408.81,168.79 M205.66,136.31 L408.77,181.22 M205.62,148.73 L408.73,193.65 M205.58,161.16 L408.69,206.08 M205.54,173.59 L408.65,218.51 M205.5,186.02 L408.62,230.93 M205.47,198.44 L408.58,243.36 M205.43,210.87 L408.54,255.79 M205.39,223.3 L408.5,268.22 M205.35,235.73 L408.46,280.64 M205.31,248.15 L408.42,293.07" style="stroke-width: 1; stroke: rgb(0, 0, 0); stroke-opacity: 0.5; fill: none; fill-opacity: 1;"/><path class="real" d=" " style="stroke-width: 1; stroke: rgb(0, 0, 0); stroke-opacity: 0.5; fill: none; fill-opacity: 1;"/></g><g class="arrow-line"><path class="connection real" stroke-dasharray="" d="  M300.67,176.72 L432.86,205.57" style="stroke: rgb(255, 0, 0); stroke-opacity: 1; stroke-width: 1; fill: none; fill-opacity: 1;"/><g stroke="rgb(255,0,0)" stroke-opacity="1" transform="matrix(-0.9770083787377244,-0.2132009096516317,0.2132009096516317,-0.9770083787377244,434.81612320368225,205.99841789936846)" style="stroke: rgb(255, 0, 0); stroke-width: 1;"><path d=" M10.93,-3.29 Q4.96,-0.45 0,0 Q4.96,0.45 10.93,3.29"/></g></g><g class="arrow-line"><path class="connection real" stroke-dasharray="" d="  M300.67,176.72 L185.01,260.12" style="stroke: rgb(0, 0, 255); stroke-opacity: 1; stroke-width: 1; fill: none; fill-opacity: 1;"/><g stroke="rgb(0,0,255)" stroke-opacity="1" transform="matrix(0.8110638189893264,-0.5849576749872157,0.5849576749872157,0.8110638189893264,183.39209682769996,261.292799639951)" style="stroke: rgb(0, 0, 255); stroke-width: 1;"><path d=" M10.93,-3.29 Q4.96,-0.45 0,0 Q4.96,0.45 10.93,3.29"/></g></g><g class="composite-shape"><path class="real" d=" M419.98,49.19 C419.98,29.61 435.85,13.74 455.42,13.74 C475,13.74 490.87,29.61 490.87,49.19 C490.87,68.77 475,84.63 455.42,84.63 C435.85,84.63 419.98,68.77 419.98,49.19 Z" style="stroke-width: 1; stroke: rgb(0, 0, 255); stroke-opacity: 1; fill: rgb(39, 82, 254); fill-opacity: 0.66;"/></g><g class="grouped-shape"><g class="composite-shape"><path class="real" d=" M175.19,257.77 C173.62,255.69 174.03,252.74 176.1,251.17 L203.05,230.77 C205.13,229.2 208.08,229.61 209.65,231.69 L218.17,242.95 C219.74,245.02 219.33,247.97 217.26,249.54 L190.31,269.94 C188.23,271.51 185.28,271.1 183.71,269.03 Z" style="stroke-width: 1; stroke: rgb(0, 0, 0); fill: rgb(255, 255, 255); fill-opacity: 0.77;"/></g><g class="composite-shape"><path class="real" d=" M171.72,245.7 C169.48,242.74 170.08,238.49 173.08,236.23 C176.07,233.96 180.32,234.53 182.57,237.5 C184.81,240.46 184.2,244.71 181.21,246.97 C178.22,249.24 173.97,248.67 171.72,245.7 Z" style="stroke-width: 1; stroke: rgb(0, 0, 0); fill: rgb(255, 255, 255); fill-opacity: 0.77;"/></g><g class="composite-shape"><path class="real" d=" M183.61,233.8 C180.54,229.74 181.37,223.94 185.46,220.84 C189.56,217.74 195.37,218.52 198.44,222.58 C201.51,226.63 200.68,232.44 196.59,235.53 C192.49,238.63 186.68,237.86 183.61,233.8 Z" style="stroke-width: 1; stroke: rgb(0, 0, 0); fill: rgb(255, 255, 255); fill-opacity: 0.77;"/></g><g class="composite-shape"><path class="real" d=" M227.15,239.58 L218.16,242.93 L211.84,234.59 L217.51,226.84 Z" style="stroke-width: 1; stroke: rgb(0, 0, 0); fill: rgb(255, 255, 255); fill-opacity: 0.77;"/></g></g><g class="arrow-line"><path class="connection real" stroke-dasharray="" d="  M294.93,149.92 L196.68,250.36" style="stroke: rgb(189, 16, 224); stroke-opacity: 1; stroke-width: 1; fill: none; fill-opacity: 1;"/></g><g class="arrow-line"><path class="connection real" stroke-dasharray="1.125 3.35" d="  M440.96,-2.27 L294.93,149.92" style="stroke: rgb(189, 16, 224); stroke-opacity: 1; stroke-width: 1; fill: none; fill-opacity: 1;"/></g><g class="composite-shape"><path class="real" d=" M313.01,135.41 L324.58,137.85 L324.26,150.1 L312.69,147.66 Z" style="stroke-width: 1; stroke: rgb(0, 0, 255); stroke-opacity: 1; fill: rgb(39, 82, 254); fill-opacity: 0.66;"/></g><g class="composite-shape"><path class="real" d=" M324.86,138.03 L336.44,140.47 L336.12,152.72 L324.54,150.28 Z" style="stroke-width: 1; stroke: rgb(0, 0, 255); stroke-opacity: 1; fill: rgb(39, 82, 254); fill-opacity: 0.66;"/></g><g class="composite-shape"><path class="real" d=" M336.4,152.9 L347.98,155.34 L347.66,167.59 L336.08,165.15 Z" style="stroke-width: 1; stroke: rgb(0, 0, 255); stroke-opacity: 1; fill: rgb(39, 82, 254); fill-opacity: 0.66;"/></g><g class="composite-shape"><path class="real" d=" M336.08,165.15 L347.66,167.59 L347.34,179.83 L335.76,177.39 Z" style="stroke-width: 1; stroke: rgb(0, 0, 255); stroke-opacity: 1; fill: rgb(39, 82, 254); fill-opacity: 0.66;"/></g><g class="composite-shape"><path class="real" d=" M301.11,145.22 L312.69,147.66 L312.37,159.9 L300.79,157.46 Z" style="stroke-width: 1; stroke: rgb(0, 0, 255); stroke-opacity: 1; fill: rgb(39, 82, 254); fill-opacity: 0.66;"/></g><g class="composite-shape"><path class="real" d=" M301.72,158.15 L313.49,160.63 L313.35,172.92 L301.59,170.44 Z" style="stroke-width: 1; stroke: rgb(0, 0, 255); stroke-opacity: 1; fill: rgb(39, 82, 254); fill-opacity: 0.66;"/></g><g class="composite-shape"><path class="real" d=" M313.25,148.02 L324.82,150.46 L324.5,162.71 L312.93,160.27 Z" style="stroke-width: 1; stroke: rgb(0, 0, 255); stroke-opacity: 1; fill: rgb(39, 82, 254); fill-opacity: 0.66;"/></g><g class="composite-shape"><path class="real" d=" M324.82,150.46 L336.4,152.9 L336.08,165.15 L324.5,162.71 Z" style="stroke-width: 1; stroke: rgb(0, 0, 255); stroke-opacity: 1; fill: rgb(39, 82, 254); fill-opacity: 0.66;"/></g><g class="composite-shape"><path class="real" d=" M325.06,163.07 L336.64,165.51 L336.32,177.76 L324.75,175.32 Z" style="stroke-width: 1; stroke: rgb(0, 0, 255); stroke-opacity: 1; fill: rgb(39, 82, 254); fill-opacity: 0.66;"/></g><g class="composite-shape"><path class="real" d=" M312.93,160.27 L324.5,162.71 L324.19,174.95 L312.61,172.51 Z" style="stroke-width: 1; stroke: rgb(0, 0, 255); stroke-opacity: 1; fill: rgb(39, 82, 254); fill-opacity: 0.66;"/></g><g class="arrow-line"><path class="connection real" stroke-dasharray="" d="  M318.32,142.35 L196.68,250.36" style="stroke: rgb(189, 16, 224); stroke-opacity: 1; stroke-width: 1; fill: none; fill-opacity: 1;"/></g><g class="arrow-line"><path class="connection real" stroke-dasharray="" d="  M300.67,176.72 L300.67,40.42" style="stroke: rgb(0, 255, 0); stroke-opacity: 1; stroke-width: 1; fill: none; fill-opacity: 1;"/><g stroke="rgb(0,255,0)" stroke-opacity="1" transform="matrix(3.061616997868383e-16,1,-1,3.061616997868383e-16,300.66843888435045,38.4229611775271)" style="stroke: rgb(0, 255, 0); stroke-width: 1;"><path d=" M10.93,-3.29 Q4.96,-0.45 0,0 Q4.96,0.45 10.93,3.29"/></g></g><g class="composite-shape"><path class="real" d=" M316.94,142.75 C316.94,141.82 317.7,141.06 318.64,141.06 C319.57,141.06 320.33,141.82 320.33,142.75 C320.33,143.69 319.57,144.45 318.64,144.45 C317.7,144.45 316.94,143.69 316.94,142.75 Z" style="stroke-width: 1; stroke: rgb(189, 16, 224); stroke-opacity: 1; fill: rgb(189, 16, 224); fill-opacity: 1;"/></g><g class="composite-shape"><path class="real" d=" M293.23,149.92 C293.23,148.99 293.99,148.23 294.93,148.23 C295.86,148.23 296.62,148.99 296.62,149.92 C296.62,150.86 295.86,151.62 294.93,151.62 C293.99,151.62 293.23,150.86 293.23,149.92 Z" style="stroke-width: 1; stroke: rgb(189, 16, 224); stroke-opacity: 1; fill: rgb(189, 16, 224); fill-opacity: 1;"/></g><g class="composite-shape"><path class="real" d=" M191.53,250.36 C191.53,247.51 193.83,245.2 196.68,245.2 C199.53,245.2 201.84,247.51 201.84,250.36 C201.84,253.2 199.53,255.51 196.68,255.51 C193.83,255.51 191.53,253.2 191.53,250.36 Z" style="stroke-width: 1; stroke: none; stroke-opacity: 1; fill: rgb(255, 0, 167); fill-opacity: 1;"/></g><g class="arrow-line"><path class="connection real" stroke-dasharray="1.125 3.35" d="  M421.11,56.57 L318.32,142.35" style="stroke: rgb(189, 16, 224); stroke-opacity: 1; stroke-width: 1; fill: none; fill-opacity: 1;"/><g stroke="rgb(189,16,224)" stroke-opacity="1" transform="matrix(-0.9959474293972129,-0.08993729969864353,0.08993729969864353,-0.9959474293972129,421.1106781568712,56.57066909461818)" style="stroke: rgb(189, 16, 224); stroke-width: 1;"><path d=" M-4.47,0 L4.47,0 M0,4.47 L0,-4.47"/></g></g><g class="composite-shape"><path class="real" d=" M295.28,176.98 C295.28,174.14 297.59,171.83 300.43,171.83 C303.28,171.83 305.59,174.14 305.59,176.98 C305.59,179.83 303.28,182.14 300.43,182.14 C297.59,182.14 295.28,179.83 295.28,176.98 Z" style="stroke-width: 1; stroke: none; stroke-opacity: 1; fill: rgb(255, 0, 167); fill-opacity: 1;"/></g><g/></g><g/><g/><g/></svg>
        <svg xmlns="http://www.w3.org/2000/svg" xmlns:xlink="http://www.w3.org/1999/xlink" width="660" height="300" style="width:660px;height:300px;font-family:Asana-Math, Asana;background:#FFF;"><g><g><g><g transform="matrix(1,0,0,1,303.9750162760417,193.7375020345049)"><path transform="matrix(0.0136,0,0,-0.0136,0,0)" d="M251 722L239 733C187 707 151 698 79 691L75 670L123 670C147 670 157 663 157 648C157 645 157 640 154 622C143 567 70 182 55 132C42 82 36 52 36 31C36 6 47 -9 66 -9C92 -9 128 12 226 85L216 103L190 86C161 67 139 56 129 56C122 56 116 66 116 76C116 82 117 89 120 104Z" stroke="rgb(255,0,167)" stroke-opacity="1" stroke-width="8" fill="rgb(255,0,167)" fill-opacity="1"></path></g></g></g></g><g><g><g><rect x="239.64998372395834" y="224.36249796549464" width="6.600000381469727" height="20" fill="rgb(255,255,255)" fill-opacity="0.5" stroke="none"></rect><g transform="matrix(1,0,0,1,239.64998372395834,241.36249796549464)"><path transform="matrix(0.017,0,0,-0.017,0,0)" d="M328 111L304 94C251 56 203 36 167 36C120 36 91 73 91 133C91 158 94 185 99 214C116 218 225 248 250 259C335 296 374 342 374 404C374 451 340 482 290 482C222 496 112 423 75 349C45 299 15 180 15 113C15 35 59 -11 131 -11C188 -11 244 17 336 92ZM113 274C130 343 150 386 179 412C197 428 228 440 252 440C281 440 300 420 300 388C300 344 265 297 213 272C185 258 149 247 104 237Z" stroke="rgb(0,0,255)" stroke-opacity="1" stroke-width="8" fill="rgb(0,0,255)" fill-opacity="1"></path></g></g><g><rect x="246.74999999999997" y="224.36249796549464" width="5.27499993642175" height="22.387499491373546" fill="rgb(255,255,255)" fill-opacity="0.5" stroke="none"></rect><g><g><g><g transform="matrix(1,0,0,1,246.74999999999997,244.37500610351563)"><path transform="matrix(0.0119,0,0,-0.0119,0,0)" d="M322 -11C334 -11 343 -9 372 -1C383 61 391 95 402 142L380 142L358 82C352 64 340 57 319 57C307 57 291 59 270 64L252 68C219 75 185 80 166 80C134 80 107 74 71 59L410 441L416 473L407 482L384 459C374 449 364 445 350 445C316 445 264 453 216 466L198 471C170 478 150 482 136 482C119 482 99 479 75 472L43 350L64 350L94 408C111 412 120 413 133 413C174 413 206 398 259 398C295 398 319 404 352 421L-1 21L8 -6C37 17 64 26 99 26C162 26 253 -11 322 -11Z" stroke="rgb(0,0,255)" stroke-opacity="1" stroke-width="8" fill="rgb(0,0,255)" fill-opacity="1"></path></g></g></g></g></g></g></g><g><g><g><g transform="matrix(1,0,0,1,433.4375,190.9500020345049)"><path transform="matrix(0.017,0,0,-0.017,0,0)" d="M328 111L304 94C251 56 203 36 167 36C120 36 91 73 91 133C91 158 94 185 99 214C116 218 225 248 250 259C335 296 374 342 374 404C374 451 340 482 290 482C222 496 112 423 75 349C45 299 15 180 15 113C15 35 59 -11 131 -11C188 -11 244 17 336 92ZM113 274C130 343 150 386 179 412C197 428 228 440 252 440C281 440 300 420 300 388C300 344 265 297 213 272C185 258 149 247 104 237Z" stroke="rgb(255,0,0)" stroke-opacity="1" stroke-width="8" fill="rgb(255,0,0)" fill-opacity="1"></path></g></g><g><g><g><g><g transform="matrix(1,0,0,1,440.5375162760417,193.9625101725259)"><path transform="matrix(0.0119,0,0,-0.0119,0,0)" d="M9 1C24 -7 40 -11 52 -11C85 -11 124 18 155 65L231 182L242 113C255 28 278 -11 314 -11C336 -11 368 6 400 35L449 79L440 98C404 68 379 53 363 53C348 53 335 63 325 83C316 102 305 139 300 168L282 269L317 318C364 383 391 406 422 406C438 406 450 398 455 383L469 387L484 472C472 479 463 482 454 482C414 482 374 446 312 354L275 299L269 347C257 446 230 482 171 482C145 482 123 474 114 461L56 378L73 368C103 402 123 416 142 416C175 416 197 375 214 277L225 215L185 153C142 86 108 54 80 54C65 54 54 58 52 63L41 91L21 88C21 53 13 27 9 1Z" stroke="rgb(255,0,0)" stroke-opacity="1" stroke-width="8" fill="rgb(255,0,0)" fill-opacity="1"></path></g></g></g></g></g></g></g><g><g><g><g transform="matrix(1,0,0,1,318.6000162760417,45.625)"><path transform="matrix(0.017,0,0,-0.017,0,0)" d="M328 111L304 94C251 56 203 36 167 36C120 36 91 73 91 133C91 158 94 185 99 214C116 218 225 248 250 259C335 296 374 342 374 404C374 451 340 482 290 482C222 496 112 423 75 349C45 299 15 180 15 113C15 35 59 -11 131 -11C188 -11 244 17 336 92ZM113 274C130 343 150 386 179 412C197 428 228 440 252 440C281 440 300 420 300 388C300 344 265 297 213 272C185 258 149 247 104 237Z" stroke="rgb(0,255,0)" stroke-opacity="1" stroke-width="8" fill="rgb(0,255,0)" fill-opacity="1"></path></g></g><g><g><g><g><g transform="matrix(1,0,0,1,325.6999918619792,48.63749796549464)"><path transform="matrix(0.0119,0,0,-0.0119,0,0)" d="M-7 -180C-8 -187 -8 -193 -8 -198C-8 -241 29 -276 74 -276C180 -276 290 -152 349 33L490 473L479 482C450 471 427 465 405 463L370 331C358 284 323 211 290 162C255 111 206 67 184 67C172 67 163 90 164 115L180 322C182 353 184 391 184 419C184 464 177 482 160 482C147 482 133 475 85 442L3 386L14 368L64 398C69 401 80 410 89 410C103 410 111 391 111 358C111 357 111 351 110 343L93 100L92 60C92 18 110 -11 135 -11C172 -11 256 74 331 187L282 16C231 -161 181 -234 111 -234C76 -234 49 -207 49 -172C49 -167 50 -159 51 -150L41 -146Z" stroke="rgb(0,255,0)" stroke-opacity="1" stroke-width="8" fill="rgb(0,255,0)" fill-opacity="1"></path></g></g></g></g></g></g></g><g><g><g><g transform="matrix(1,0,0,1,203.47501627604166,271.73752237955716)"><path transform="matrix(0.0136,0,0,-0.0136,0,0)" d="M342 330L365 330C373 395 380 432 389 458C365 473 330 482 293 482C248 483 175 463 118 400C64 352 25 241 25 136C25 40 67 -11 147 -11C201 -11 249 9 304 54L354 95L346 115L331 105C259 57 221 40 186 40C130 40 101 80 101 159C101 267 136 371 185 409C206 425 230 433 261 433C306 433 342 414 342 390Z" stroke="rgb(255,0,167)" stroke-opacity="1" stroke-width="8" fill="rgb(255,0,167)" fill-opacity="1"></path></g></g><g><g><g><g><g transform="matrix(1,0,0,1,209.39998372395831,274.14498982747364)"><path transform="matrix(0.009519999999999999,0,0,-0.009519999999999999,0,0)" d="M17 152C17 46 62 -11 145 -11C200 -11 260 15 305 57C367 116 411 230 411 331C411 425 361 482 278 482C174 482 17 382 17 152ZM241 444C302 444 335 399 335 315C335 219 304 113 260 60C242 39 216 27 185 27C127 27 93 72 93 151C93 264 132 387 181 427C194 438 217 444 241 444Z" stroke="rgb(255,0,167)" stroke-opacity="1" stroke-width="8" fill="rgb(255,0,167)" fill-opacity="1"></path></g></g></g></g></g></g></g></svg>
</svg>
